<svg width="16" height="16" viewBox="0 0 16 16" fill="none" xmlns="http://www.w3.org/2000/svg">
<path fill-rule="evenodd" clip-rule="evenodd" d="M4.90615 2.62038C5.35246 2.17407 6.07608 2.17407 6.52239 2.62038L11.0938 7.19181C11.5401 7.63812 11.5401 8.36174 11.0938 8.80805C10.6475 9.25437 9.92389 9.25437 9.47758 8.80805L4.90615 4.23662C4.45983 3.79031 4.45983 3.06669 4.90615 2.62038Z" fill="#638BEF"/>
<path fill-rule="evenodd" clip-rule="evenodd" d="M4.90615 13.3795C5.35246 13.8258 6.07608 13.8258 6.52239 13.3795L11.0938 8.80805C11.5401 8.36174 11.5401 7.63812 11.0938 7.19181C10.6475 6.74549 9.92389 6.74549 9.47758 7.19181L4.90615 11.7632C4.45983 12.2096 4.45983 12.9332 4.90615 13.3795Z" fill="#638BEF"/>
</svg>
