<svg width="17" height="17" viewBox="0 0 17 17" fill="none" xmlns="http://www.w3.org/2000/svg">
<path fill-rule="evenodd" clip-rule="evenodd" d="M11.0939 13.3796C10.6475 13.8259 9.92392 13.8259 9.47761 13.3796L4.90618 8.80819C4.45987 8.36188 4.45987 7.63826 4.90618 7.19195C5.3525 6.74564 6.07611 6.74564 6.52243 7.19195L11.0939 11.7634C11.5402 12.2097 11.5402 12.9333 11.0939 13.3796Z" fill="#638BEF"/>
<path fill-rule="evenodd" clip-rule="evenodd" d="M11.0939 2.62052C10.6475 2.17421 9.92392 2.17421 9.47761 2.62052L4.90618 7.19195C4.45987 7.63826 4.45987 8.36188 4.90618 8.80819C5.3525 9.25451 6.07611 9.25451 6.52243 8.80819L11.0939 4.23676C11.5402 3.79045 11.5402 3.06683 11.0939 2.62052Z" fill="#638BEF"/>
</svg>
