<svg width="7" height="12" viewBox="0 0 7 12" fill="none" xmlns="http://www.w3.org/2000/svg">
<path fill-rule="evenodd" clip-rule="evenodd" d="M6.52238 11.3795C6.07607 11.8259 5.35245 11.8259 4.90614 11.3795L0.33471 6.80812C-0.111603 6.3618 -0.111603 5.63819 0.33471 5.19187C0.781023 4.74556 1.50464 4.74556 1.95095 5.19187L6.52238 9.7633C6.9687 10.2096 6.9687 10.9332 6.52238 11.3795Z" fill="#638BEF"/>
<path fill-rule="evenodd" clip-rule="evenodd" d="M6.52238 0.620445C6.07607 0.174131 5.35245 0.174131 4.90614 0.620445L0.33471 5.19187C-0.111603 5.63819 -0.111603 6.3618 0.33471 6.80812C0.781023 7.25443 1.50464 7.25443 1.95095 6.80812L6.52238 2.23669C6.9687 1.79037 6.9687 1.06676 6.52238 0.620445Z" fill="#638BEF"/>
</svg>
