<svg width="14" height="14" viewBox="0 0 14 14" fill="none" xmlns="http://www.w3.org/2000/svg">
<path fill-rule="evenodd" clip-rule="evenodd" d="M8.03412 5.26979C8.40168 5.08651 8.86938 4.81671 9.33764 4.44707C9.43637 4.6521 9.44718 4.83101 9.39631 4.97548C9.36027 5.0773 9.29234 5.16585 9.20302 5.23631C9.10629 5.31245 8.98549 5.36788 8.85196 5.39784C8.59858 5.45492 8.30275 5.42159 8.03412 5.26979ZM8.09784 7.14771L8.5844 7.42876C7.59093 7.98558 7.32085 9.0195 7.00003 10.0266C6.67925 9.0195 6.40913 7.98558 5.4157 7.42876L5.90226 7.14771C5.94933 7.12992 5.98956 7.09769 6.01719 7.05564C6.04482 7.01358 6.05843 6.96386 6.05606 6.9136C6.01149 5.97048 6.26614 5.55341 6.60964 5.29154C6.73284 5.19774 6.86734 5.15063 7.00003 5.15063C7.13273 5.15063 7.26722 5.19774 7.39047 5.29154C7.73396 5.55341 7.98862 5.97048 7.94404 6.9136C7.94168 6.96386 7.95528 7.01358 7.98291 7.05564C8.01054 7.09769 8.05077 7.12992 8.09784 7.14771ZM7.00003 0.989502C7.56245 1.0046 8.12628 1.11379 8.6156 1.32619C8.95445 1.47346 9.27063 1.668 9.55693 1.90062C9.68622 2.00564 9.79268 2.1071 9.90995 2.22389C10.2262 2.23483 10.6885 1.88344 10.9031 1.55465C10.5338 2.76545 8.84843 4.19529 7.68165 4.74242C7.68117 4.74222 7.68085 4.74194 7.68049 4.74169C7.47109 4.5818 7.23558 4.50186 7.00003 4.50186C6.76448 4.50186 6.52901 4.5818 6.31961 4.74169C6.31925 4.7419 6.31893 4.74226 6.31845 4.74242C5.15163 4.19529 3.46633 2.76545 3.097 1.55465C3.31156 1.88344 3.77381 2.23483 4.09011 2.22389C4.20742 2.10714 4.31389 2.00564 4.44314 1.90062C4.72943 1.668 5.04561 1.47346 5.38446 1.32619C5.87382 1.11379 6.43765 1.0046 7.00003 0.989502ZM5.96595 5.26979C5.59842 5.08651 5.13068 4.81671 4.66247 4.44707C4.56373 4.6521 4.55292 4.83101 4.60375 4.97548C4.63984 5.0773 4.70776 5.16585 4.79704 5.23631C4.89381 5.31245 5.01461 5.36788 5.14815 5.39784C5.40152 5.45492 5.69731 5.42159 5.96595 5.26979Z" fill="#3246DC"/>
<path fill-rule="evenodd" clip-rule="evenodd" d="M9.85047 3.99411C10.1083 3.73396 10.3354 3.44602 10.518 3.18909L10.6108 3.36368C10.9094 3.96114 11.0646 4.55621 11.0646 5.22589L11.064 6.28858L11.0696 6.83946C11.0912 8.19189 11.3838 9.56021 12.0467 10.8124L10.6598 9.69407L9.67845 11.2865L8.64749 10.316L7.00003 12.9895L5.35258 10.3161L4.32166 11.2866L3.34032 9.69411L1.95337 10.8125C2.61624 9.56026 2.90887 8.19193 2.93054 6.8395L2.93615 6.28862L2.93551 5.22593C2.93551 4.55621 3.09063 3.96114 3.38934 3.36372L3.48207 3.18913C3.66471 3.44606 3.89181 3.73396 4.14963 3.99415L4.06912 4.16137C3.91272 4.48616 3.86093 4.84932 3.98277 5.19469C4.06131 5.41715 4.20466 5.60792 4.38946 5.75355C4.5689 5.89498 4.78126 5.9903 5.0036 6.04037C5.14843 6.07297 5.29598 6.08639 5.44257 6.08182C5.40837 6.27572 5.39343 6.47682 5.39247 6.68174L4.08418 7.43737L5.09375 8.00328C5.17445 8.04852 5.25126 8.10035 5.32342 8.15824C6.15576 8.90555 6.65618 11.1163 7.00007 12.1962C7.344 11.1163 7.84438 8.90555 8.67676 8.15824C8.74891 8.10034 8.82573 8.04851 8.90643 8.00328L9.916 7.43737L8.60767 6.68174C8.60671 6.47682 8.59177 6.27572 8.55757 6.08182C8.70416 6.08639 8.85171 6.07297 8.99655 6.04037C9.21888 5.9903 9.43128 5.89498 9.61068 5.75355C9.79544 5.60792 9.93883 5.41715 10.0173 5.19469C10.1392 4.84932 10.0874 4.4862 9.93102 4.16137L9.85047 3.99411Z" fill="#3246DC"/>
</svg>
