<svg width="14" height="14" viewBox="0 0 14 14" fill="none" xmlns="http://www.w3.org/2000/svg">
<path d="M6.80005 0.800049C5.20875 0.800049 3.68263 1.43219 2.55741 2.55741C1.43219 3.68263 0.800049 5.20875 0.800049 6.80005C0.800049 8.39135 1.43219 9.91747 2.55741 11.0427C3.68263 12.1679 5.20875 12.8 6.80005 12.8C8.39135 12.8 9.91747 12.1679 11.0427 11.0427C12.1679 9.91747 12.8 8.39135 12.8 6.80005C12.8 5.20875 12.1679 3.68263 11.0427 2.55741C9.91747 1.43219 8.39135 0.800049 6.80005 0.800049ZM9.55161 9.45364C9.4998 9.53819 9.41661 9.59877 9.32024 9.62214C9.22388 9.64551 9.12218 9.62976 9.03739 9.57833C7.62833 8.71724 5.85599 8.52271 3.76677 8.99989C3.67011 9.02196 3.56864 9.00472 3.48469 8.95198C3.40074 8.89924 3.34118 8.8153 3.31911 8.71864C3.29704 8.62198 3.31428 8.52052 3.36702 8.43657C3.41977 8.35261 3.5037 8.29305 3.60036 8.27099C5.88552 7.74833 7.8463 7.97333 9.42786 8.93989C9.5122 8.99178 9.5726 9.07491 9.59587 9.17116C9.61914 9.26741 9.60293 9.36896 9.55161 9.45364ZM10.2852 7.82005C10.2203 7.9256 10.1163 8.00115 9.99583 8.03014C9.87538 8.05913 9.74834 8.03921 9.64255 7.97474C8.03005 6.98286 5.57146 6.69599 3.66364 7.27489C3.54758 7.30238 3.42541 7.28459 3.32201 7.22515C3.21861 7.1657 3.14175 7.06908 3.1071 6.95496C3.07244 6.84084 3.08259 6.71779 3.13548 6.61089C3.18837 6.50399 3.28002 6.42127 3.39177 6.37958C5.57146 5.71864 8.27989 6.03927 10.1315 7.17646C10.2374 7.24142 10.3133 7.34582 10.3423 7.46669C10.3713 7.58756 10.3511 7.715 10.2861 7.82099L10.2852 7.82005ZM10.3494 6.11896C8.41489 4.97052 5.22458 4.86505 3.37864 5.42614C3.30813 5.44753 3.23409 5.45483 3.16076 5.44761C3.08743 5.44038 3.01624 5.41879 2.95125 5.38405C2.82 5.3139 2.722 5.19449 2.6788 5.05208C2.6356 4.90967 2.65074 4.75593 2.72089 4.62469C2.79104 4.49344 2.91045 4.39544 3.05286 4.35224C5.17161 3.70817 8.6952 3.83333 10.9208 5.15427C11.0489 5.23017 11.1415 5.35382 11.1784 5.49803C11.2153 5.64225 11.1934 5.7952 11.1175 5.92325C11.0416 6.0513 10.9179 6.14396 10.7737 6.18083C10.6295 6.21771 10.4765 6.19579 10.3485 6.11989" fill="#3246DC"/>
</svg>
