<svg width="14" height="14" viewBox="0 0 14 14" fill="none" xmlns="http://www.w3.org/2000/svg">
<path d="M7 1C10.2903 1 13 3.70968 13 7C13 10.3145 10.2903 13 7 13C3.68548 13 1 10.3145 1 7C1 3.70968 3.68548 1 7 1ZM9.75806 5.08871C9.78226 5.01613 9.78226 4.94355 9.75806 4.84677C9.75806 4.79839 9.70968 4.72581 9.68548 4.70161C9.6129 4.62903 9.49194 4.62903 9.44355 4.62903C9.22581 4.62903 8.8629 4.75 7.19355 5.45161C6.6129 5.69355 5.45161 6.17742 3.70968 6.95161C3.41935 7.07258 3.27419 7.16935 3.25 7.29032C3.22581 7.48387 3.54032 7.55645 3.90323 7.67742C4.21774 7.77419 4.62903 7.89516 4.84677 7.89516C5.04032 7.89516 5.25806 7.82258 5.5 7.65323C7.12097 6.54032 7.96774 5.98387 8.01613 5.98387C8.06452 5.98387 8.1129 5.95968 8.1371 5.98387C8.18548 6.03226 8.18548 6.08065 8.16129 6.10484C8.1371 6.22581 6.6129 7.62903 6.51613 7.72581C6.17742 8.06452 5.79032 8.28226 6.39516 8.66935C6.90323 9.00806 7.19355 9.22581 7.72581 9.56452C8.06452 9.78226 8.33065 10.0484 8.66935 10.0242C8.83871 10 9.00806 9.85484 9.08065 9.39516C9.29839 8.35484 9.68548 6.03226 9.75806 5.08871Z" fill="#3246DC"/>
</svg>
