<svg width="182" height="46" viewBox="0 0 182 46" fill="none" xmlns="http://www.w3.org/2000/svg">
<g style="mix-blend-mode:difference">
<path d="M7.36939 29.9C6.37083 29.9 5.42552 29.7262 4.53347 29.3786C3.65474 29.0311 2.87586 28.5297 2.19684 27.8747C1.51781 27.2062 0.978591 26.4041 0.579166 25.4683C0.193055 24.5325 0 23.4764 0 22.3C0 21.1102 0.193055 20.0474 0.579166 19.1116C0.978591 18.1758 1.51781 17.3803 2.19684 16.7253C2.88917 16.0702 3.67471 15.5756 4.55344 15.2414C5.44549 14.8938 6.38414 14.72 7.36939 14.72C8.35464 14.72 9.28663 14.8938 10.1654 15.2414C11.0574 15.5756 11.8429 16.0702 12.522 16.7253C13.2143 17.3803 13.7535 18.1758 14.1396 19.1116C14.5391 20.0474 14.7388 21.1102 14.7388 22.3C14.7388 23.4764 14.5391 24.5325 14.1396 25.4683C13.7535 26.4041 13.221 27.2062 12.5419 27.8747C11.8629 28.5297 11.0774 29.0311 10.1853 29.3786C9.3066 29.7262 8.36795 29.9 7.36939 29.9ZM7.36939 27.8747C8.27475 27.8747 9.10688 27.6608 9.86579 27.233C10.6247 26.8052 11.2305 26.1835 11.6832 25.3681C12.1359 24.5392 12.3622 23.5232 12.3622 22.32C12.3622 21.1035 12.1359 20.0875 11.6832 19.272C11.2305 18.4431 10.6247 17.8215 9.86579 17.4071C9.1202 16.9793 8.28806 16.7654 7.36939 16.7654C6.45071 16.7654 5.61192 16.9793 4.85301 17.4071C4.10742 17.8215 3.50828 18.4431 3.0556 19.272C2.60292 20.0875 2.37658 21.1035 2.37658 22.32C2.37658 23.5232 2.60958 24.5392 3.07557 25.3681C3.54157 26.1835 4.15402 26.8052 4.91292 27.233C5.67183 27.6608 6.49065 27.8747 7.36939 27.8747Z" fill="#3246DC"/>
<path d="M53.1283 29.6995L49.5934 22.8214L48.6747 20.7359L48.2553 22.8214L46.8973 29.6995H44.6805L47.7161 14.9606H47.9558L51.99 22.9216L53.1882 25.5886L54.3865 22.9216L58.3408 14.9606H58.5605L61.716 29.6995H59.5191L58.0413 22.8214L57.6019 20.7359L56.803 22.8214L53.2482 29.6995H53.1283Z" fill="#3246DC"/>
<path d="M103.207 29.6995L94.6192 20.1543L94.6791 21.7586V29.6995H92.4423V14.9406H92.7219L101.35 24.6061L101.27 22.9216V14.9606H103.506V29.6995H103.207Z" fill="#3246DC"/>
<path d="M135.269 29.6995V14.9606H137.506V29.6995H135.269Z" fill="#3246DC"/>
<path d="M174.615 14.9406H174.835L181.905 29.6995H179.328L178.07 26.8119H171.34L170.082 29.6995H167.585L174.615 14.9406ZM174.715 19.2118L173.836 21.2171L172.239 24.7865H177.192L175.614 21.2372L174.755 19.2118H174.715Z" fill="#3246DC"/>
</g>
</svg>
